# xmcd CD database file
#
# Track frame offsets:
#	150
#	16578
#	53535
#	79036
#	104575
#	146322
#	205953
#	240804
#
# Disc length: 3854 seconds
#
# Revision: 0
# Processed by: cddbd v1.4PL0 Copyright (c) Steve Scherf et al.
# Submitted via: CDex 1.50Beta7
#
DISCID=540f0c08
DTITLE=Eric Dolphy - Quiet Please
DYEAR=1900
DGENRE=Jazz
TTITLE0=African lady
TTITLE1=Quiet please
TTITLE2=Moods in free time
TTITLE3=Hazy hues
TTITLE4=Reincarnation of a love bird
TTITLE5=Stormy weather
TTITLE6=Tain't nobody's bizness if I do
TTITLE7=Body and soul
EXTD=
EXTT0=
EXTT1=
EXTT2=
EXTT3=
EXTT4=
EXTT5=
EXTT6=
EXTT7=
PLAYORDER=
